HIERARCHY
ROOT joint_Root
{
	OFFSET 0.0 0.0 0.0
	CHANNELS 6 Xposition Yposition Zposition Zrotation Xrotation Yrotation 
	JOINT Hips
	{
		OFFSET 4.5925 91.4895 -427.239
		CHANNELS 6 Xposition Yposition Zposition Zrotation Xrotation Yrotation 
		JOINT Spine
		{
			OFFSET 15.7357 0.0 0.0
			CHANNELS 6 Xposition Yposition Zposition Zrotation Xrotation Yrotation 
			JOINT Chest
			{
				OFFSET 8.98455 -0.406207 0.0
				CHANNELS 6 Xposition Yposition Zposition Zrotation Xrotation Yrotation 
				JOINT Neck
				{
					OFFSET 16.3773 0.0 0.0
					CHANNELS 6 Xposition Yposition Zposition Zrotation Xrotation Yrotation 
					JOINT Head
					{
						OFFSET 6.45672 0.0 0.0
						CHANNELS 6 Xposition Yposition Zposition Zrotation Xrotation Yrotation 
						End Site
						{
							OFFSET 0.0 0.0 0.0
						}
					}
				}
				JOINT Shoulder_L
				{
					OFFSET 12.9942 -0.242716 4.98039
					CHANNELS 6 Xposition Yposition Zposition Zrotation Xrotation Yrotation 
					JOINT UpperArm_L
					{
						OFFSET 5.34809 0.0 0.0
						CHANNELS 6 Xposition Yposition Zposition Zrotation Xrotation Yrotation 
						JOINT LowerArm_L
						{
							OFFSET 24.3286 1.87007e-05 0.0
							CHANNELS 6 Xposition Yposition Zposition Zrotation Xrotation Yrotation 
							JOINT Hand_L
							{
								OFFSET 22.2916 0.0 0.0
								CHANNELS 6 Xposition Yposition Zposition Zrotation Xrotation Yrotation 
								End Site
								{
									OFFSET 0.0 0.0 0.0
								}
							}
						}
					}
				}
				JOINT Shoulder_R
				{
					OFFSET 12.9945 -0.242716 -4.98039
					CHANNELS 6 Xposition Yposition Zposition Zrotation Xrotation Yrotation 
					JOINT UpperArm_R
					{
						OFFSET -5.34813 0.0 0.0
						CHANNELS 6 Xposition Yposition Zposition Zrotation Xrotation Yrotation 
						JOINT LowerArm_R
						{
							OFFSET -24.3289 0.000322201 0.0
							CHANNELS 6 Xposition Yposition Zposition Zrotation Xrotation Yrotation 
							JOINT Hand_R
							{
								OFFSET -22.2915 -0.000108084 0.0
								CHANNELS 6 Xposition Yposition Zposition Zrotation Xrotation Yrotation 
								End Site
								{
									OFFSET 0.0 0.0 0.0
								}
							}
						}
					}
				}
			}
		}
		JOINT UpperLeg_L
		{
			OFFSET -2.19248 -6.46944 0.0
			CHANNELS 6 Xposition Yposition Zposition Zrotation Xrotation Yrotation 
			JOINT LowerLeg_L
			{
				OFFSET 39.0811 0.0 -1.23785e-05
				CHANNELS 6 Xposition Yposition Zposition Zrotation Xrotation Yrotation 
				JOINT Foot_L
				{
					OFFSET 40.9854 0.0 -1.26872e-05
					CHANNELS 6 Xposition Yposition Zposition Zrotation Xrotation Yrotation 
					JOINT Toes_L
					{
						OFFSET 11.7543 0.0 0.0
						CHANNELS 6 Xposition Yposition Zposition Zrotation Xrotation Yrotation 
						End Site
						{
							OFFSET 0.0 0.0 0.0
						}
					}
				}
			}
		}
		JOINT UpperLeg_R
		{
			OFFSET -2.19251 6.46944 0.0
			CHANNELS 6 Xposition Yposition Zposition Zrotation Xrotation Yrotation 
			JOINT LowerLeg_R
			{
				OFFSET -39.0811 -0.00228153 -0.0401928
				CHANNELS 6 Xposition Yposition Zposition Zrotation Xrotation Yrotation 
				JOINT Foot_R
				{
					OFFSET -40.9854 0.0 0.0
					CHANNELS 6 Xposition Yposition Zposition Zrotation Xrotation Yrotation 
					JOINT Toes_R
					{
						OFFSET -11.7543 0.0 0.0
						CHANNELS 6 Xposition Yposition Zposition Zrotation Xrotation Yrotation 
						End Site
						{
							OFFSET 0.0 0.0 0.0
						}
					}
				}
			}
		}
	}
}
MOTION
Frames:	6
Frame Time:	0.0333333
0.000000 0.000000 0.000000 0.000000 0.000000 -0.000000 2.689150 82.486100 34.699400 -91.570800 1.648820 177.796000 15.735700 0.000005 -0.000001 95.618800 82.682000 -98.279300 8.984550 -0.406207 -0.000000 6.840520 1.449640 -5.402100 16.377300 -0.000001 -0.000001 -5.594260 -5.151680 -0.973814 6.456720 -0.000001 -0.000000 -10.172200 -8.174130 -4.447910 12.994200 -0.242716 4.980390 -92.384400 5.944860 -68.098100 5.348090 -0.000007 -0.000001 -56.735900 10.033500 -5.929280 24.328600 0.000019 0.000005 20.915800 -9.084110 -112.472000 22.291600 -0.000001 0.000005 7.180490 5.400710 -2.969580 12.994500 -0.242716 -4.980390 88.031200 9.370910 -78.078600 -5.348130 -0.000001 -0.000004 -63.901000 34.112900 -1.258870 -24.328900 0.000322 -0.000009 5.136250 0.419795 -85.343400 -22.291500 -0.000108 -0.000004 22.489500 5.585330 -10.514700 -2.192480 -6.469440 -0.000000 174.055000 -3.190940 -25.100800 39.081100 -0.000007 -0.000012 -0.632542 0.374886 59.347700 40.985400 -0.000006 -0.000013 3.977340 -3.892940 -86.989400 11.754300 -0.000000 0.000003 -0.000575 -0.004472 -16.740100 -2.192510 6.469440 -0.000001 175.294000 3.520630 162.240000 -39.081100 -0.002282 -0.040193 -0.130641 -0.034841 104.542000 -40.985400 0.000008 0.000006 9.579570 -6.758380 -42.536300 -11.754300 -0.000006 -0.000006 -0.017390 -0.152380 -22.794300
0.000000 0.000000 0.000000 0.000000 0.000000 -0.000000 2.426890 82.824900 27.023900 -90.073200 1.007390 175.968000 15.735700 0.000005 -0.000001 88.991100 83.417200 -90.987600 8.984550 -0.406207 -0.000000 5.397360 -0.190111 -3.979620 16.377300 -0.000001 -0.000001 -5.434790 -5.337090 -1.514930 6.456720 -0.000001 -0.000000 -8.690870 -7.446570 -4.169810 12.994200 -0.242716 4.980390 -91.675000 4.435500 -69.297800 5.348090 -0.000007 -0.000001 -66.194400 11.422200 -10.189900 24.328600 0.000019 0.000005 32.474700 -11.856700 -107.890000 22.291600 -0.000001 0.000005 3.715310 5.403110 -3.026500 12.994500 -0.242716 -4.980390 88.074500 8.117940 -76.606200 -5.348130 -0.000001 -0.000004 -68.596500 31.478700 8.075350 -24.328900 0.000322 -0.000009 -2.004300 -0.044466 -88.490700 -22.291500 -0.000108 -0.000004 17.924600 5.584280 -10.443100 -2.192480 -6.469440 -0.000000 175.666000 -3.200610 -18.311800 39.081100 -0.000007 -0.000012 -0.659662 0.469761 54.546200 40.985400 -0.000006 -0.000013 4.097690 -3.486030 -90.740900 11.754300 -0.000000 0.000003 -0.000487 -0.003893 -16.720000 -2.192510 6.469440 -0.000001 178.097000 4.643670 151.074000 -39.081100 -0.002282 -0.040193 -0.232145 -0.082240 109.232000 -40.985400 0.000008 0.000006 12.328900 -10.650500 -44.892600 -11.754300 -0.000006 -0.000006 -0.018226 -0.157256 -22.994800
0.000000 0.000000 0.000000 0.000000 0.000000 -0.000000 2.610480 84.677500 18.511500 -87.645800 -0.681764 174.924000 15.735700 0.000005 -0.000001 71.384900 83.527200 -72.097200 8.984550 -0.406207 -0.000000 4.486600 -4.104870 -1.262630 16.377300 -0.000001 -0.000001 -5.717400 -4.681670 -1.795940 6.456720 -0.000001 -0.000000 -8.790750 -4.184710 -5.402640 12.994200 -0.242716 4.980390 -90.757300 2.245070 -71.366300 5.348090 -0.000007 -0.000001 -73.427500 13.455800 -8.252860 24.328600 0.000019 0.000005 33.355000 -13.597300 -109.658000 22.291600 -0.000001 0.000005 5.226740 5.359470 -1.692950 12.994500 -0.242716 -4.980390 88.258100 6.625500 -75.231700 -5.348130 -0.000001 -0.000004 -69.461700 35.581100 13.378100 -24.328900 0.000322 -0.000009 -9.222170 0.481256 -92.962900 -22.291500 -0.000108 -0.000004 16.074300 5.581340 -10.277000 -2.192480 -6.469440 -0.000000 178.362000 -2.550750 -8.800640 39.081100 -0.000007 -0.000012 0.106409 -0.106918 44.862600 40.985400 -0.000006 -0.000013 7.915300 -3.749410 -86.558200 11.754300 -0.000000 0.000003 -2.486730 -3.019580 -19.848700 -2.192510 6.469440 -0.000001 -177.054000 5.333070 144.382000 -39.081100 -0.002282 -0.040193 -0.260742 -0.073781 105.592000 -40.985400 0.000008 0.000006 13.433700 -14.263200 -49.843800 -11.754300 -0.000006 -0.000006 -0.017955 -0.155685 -22.930200
0.000000 0.000000 0.000000 0.000000 0.000000 -0.000000 2.874250 87.577900 9.874390 -85.673200 -3.025610 172.844000 15.735700 0.000005 -0.000001 53.241400 83.164100 -52.560900 8.984550 -0.406207 -0.000000 3.265350 -8.199490 1.595430 16.377300 -0.000001 -0.000001 -6.275320 -4.367230 -1.841100 6.456720 -0.000001 -0.000000 -9.757630 -1.516730 -5.987280 12.994200 -0.242716 4.980390 -90.192600 0.617825 -72.704400 5.348090 -0.000007 -0.000001 -74.708600 20.569100 -7.846830 24.328600 0.000019 0.000005 24.370100 -11.172500 -113.163000 22.291600 -0.000001 0.000005 10.931000 5.361080 -1.698190 12.994500 -0.242716 -4.980390 88.393400 5.447030 -73.536000 -5.348130 -0.000001 -0.000004 -68.762000 39.367300 16.432000 -24.328900 0.000322 -0.000009 -4.745680 0.521060 -96.266800 -22.291500 -0.000108 -0.000004 13.708300 5.578160 -10.109900 -2.192480 -6.469440 -0.000000 -177.873000 -3.273290 -3.376060 39.081100 -0.000007 -0.000012 0.058437 -0.075635 37.689700 40.985400 -0.000006 -0.000013 7.385520 1.203240 -73.424800 11.754300 -0.000000 0.000003 -0.067766 -0.356238 -31.319000 -2.192510 6.469440 -0.000001 -173.025000 4.898650 139.272000 -39.081100 -0.002282 -0.040193 -0.179234 -0.018311 95.700700 -40.985400 0.000008 0.000006 11.130100 -14.792200 -54.759300 -11.754300 -0.000006 -0.000006 -0.018025 -0.156092 -22.946900
0.000000 0.000000 0.000000 0.000000 0.000000 -0.000000 3.087820 90.672400 1.285610 -85.073000 -4.667810 170.825000 15.735700 0.000005 -0.000001 41.517700 82.583700 -39.973800 8.984550 -0.406207 -0.000000 2.259750 -11.172400 3.313260 16.377300 -0.000001 -0.000001 -6.627720 -4.704990 -1.223440 6.456720 -0.000001 -0.000000 -10.951000 -0.081468 -4.949070 12.994200 -0.242716 4.980390 -89.660700 -1.147020 -73.514500 5.348090 -0.000007 -0.000001 -71.806400 29.823900 -10.597400 24.328600 0.000019 0.000005 18.109900 -8.916480 -115.359000 22.291600 -0.000001 0.000005 10.037200 5.389460 -2.610630 12.994500 -0.242716 -4.980390 88.605600 4.284070 -71.948200 -5.348130 -0.000001 -0.000004 -68.773100 41.296100 18.652100 -24.328900 0.000322 -0.000009 -1.946660 0.255307 -97.464300 -22.291500 -0.000108 -0.000004 11.699900 5.560680 -9.205600 -2.192480 -6.469440 -0.000000 -174.078000 -9.062210 -0.418644 39.081100 -0.000007 -0.000012 0.038150 -0.060625 32.180800 40.985400 -0.000006 -0.000013 5.564210 10.053200 -54.626900 11.754300 -0.000000 0.000003 -0.192662 -0.632785 -43.645200 -2.192510 6.469440 -0.000001 -171.435000 3.443350 137.029000 -39.081100 -0.002282 -0.040193 -0.081429 0.013252 81.059300 -40.985400 0.000008 0.000006 9.519270 -12.353200 -58.932800 -11.754300 -0.000006 -0.000006 -0.017618 -0.153717 -22.849200
0.000000 0.000000 0.000000 0.000000 0.000000 -0.000000 2.997780 92.856700 -7.415700 -85.908300 -4.867140 170.257000 15.735700 0.000005 -0.000001 36.805800 82.059100 -35.062600 8.984550 -0.406207 -0.000000 1.996320 -12.796100 3.718120 16.377300 -0.000001 -0.000001 -6.420160 -5.138000 -0.399516 6.456720 -0.000001 -0.000000 -11.650500 0.193322 -2.515550 12.994200 -0.242716 4.980390 -89.032600 -3.283520 -73.572700 5.348090 -0.000007 -0.000001 -66.320300 38.835700 -16.362200 24.328600 0.000019 0.000005 17.723800 -8.960410 -115.982000 22.291600 -0.000001 0.000005 6.392940 5.393240 -2.716120 12.994500 -0.242716 -4.980390 88.998900 2.884660 -70.847500 -5.348130 -0.000001 -0.000004 -69.415500 41.346300 20.734200 -24.328900 0.000322 -0.000009 -2.103560 0.302747 -98.181900 -22.291500 -0.000108 -0.000004 10.209800 5.527500 -7.673950 -2.192480 -6.469440 -0.000000 -171.701000 -13.147800 3.516890 39.081100 -0.000007 -0.000012 0.052375 -0.098739 27.943100 40.985400 -0.000006 -0.000013 -1.231610 15.060800 -39.050900 11.754300 -0.000000 0.000003 -0.046476 -0.284976 -28.303500 -2.192510 6.469440 -0.000001 -172.598000 1.871560 138.420000 -39.081100 -0.002282 -0.040193 -0.003817 0.003470 63.608500 -40.985400 0.000008 0.000006 6.980410 -7.789550 -61.991700 -11.754300 -0.000006 -0.000006 -0.018462 -0.158617 -23.050800
